# xmcd
#
# Track frame offsets:
#	150
#	15290
#	35255
#
# Disc length: 723 seconds
#
# Revision: 2
# Processed by: cddbd v1.5.2PL0 Copyright (c) Steve Scherf et al.
# Submitted via: audiograbber 1.83.01
#
DISCID=1202d103
DTITLE=Hermes House Band - Country Roads
DYEAR=2002
DGENRE=Blues
TTITLE0=Country Roads (Original Live Radio Version)
TTITLE1=Country Roads (Happy Party Extended Version)
TTITLE2=Country Roads (Dance Extended Version)
EXTD=ID3G: 0
EXTT0=
EXTT1=
EXTT2=
PLAYORDER=
